<?xml version="1.0" encoding="utf-8"?>
<!-- Generator: Adobe Illustrator 23.0.1, SVG Export Plug-In . SVG Version: 6.00 Build 0)  -->
<svg version="1.1" id="Capa_1" xmlns="http://www.w3.org/2000/svg" xmlns:xlink="http://www.w3.org/1999/xlink" x="0px" y="0px"
	 viewBox="0 0 980 980" style="enable-background:new 0 0 980 980;" xml:space="preserve">
<g>
	<path d="M941.5,299.3c-24.7-58.4-60-110.8-105-155.8s-97.4-80.3-155.7-105C620.3,13,556.1,0,490,0S359.7,13,299.3,38.5
		c-58.4,24.7-110.8,60-155.7,105c-44.9,45-80.3,97.4-105,155.7C13,359.7,0,423.9,0,490s13,130.3,38.5,190.7
		c24.7,58.4,60,110.8,105,155.7c45,44.9,97.4,80.3,155.7,105C359.7,967,423.9,980,490,980s130.3-13,190.7-38.5
		c58.4-24.7,110.8-60,155.7-105c44.9-45,80.3-97.4,105-155.7C967,620.3,980,556.1,980,490S967,359.7,941.5,299.3z M913.9,669
		c-7.4,17.5-15.8,34.4-25.2,50.7l-3.4-12.9c-1.6-6.1-8-10.3-14.3-9.4l-186.4,27.8c-6.3,0.9-13.4,6.4-15.8,12.2L595,910.9
		c-2.5,5.8,0,13.1,5.5,16.2l11.6,6.6C572.6,944.5,531.7,950,490,950s-82.6-5.5-122.1-16.4l11.6-6.6c5.5-3.1,8-10.4,5.5-16.2
		l-73.8-173.5c-2.5-5.8-9.6-11.3-15.8-12.2L109,697.4c-6.3-0.9-12.7,3.3-14.3,9.4l-3.4,12.9c-9.4-16.3-17.8-33.2-25.2-50.7
		c-19.6-46.3-31.3-95-34.9-145.2l10,8.7c4.8,4.2,12.4,4,17.1-0.2L197,404.6c4.7-4.3,7.4-12.8,6.2-19l-36.4-185
		c-1.2-6.2-7.3-10.8-13.6-10.3l-13.2,1.1c7.8-9.2,16.1-18.1,24.7-26.7C207,122.5,256.2,89.3,311,66.1c1.4-0.6,2.8-1.2,4.2-1.8
		L310,76.7c-2.5,5.8,0,13.1,5.6,16.2L480,185c5.5,3.1,14.5,3.1,20,0l164.5-92.1c5.5-3.1,8-10.3,5.6-16.2l-5.2-12.3
		c1.4,0.6,2.8,1.2,4.2,1.8c54.8,23.2,104,56.3,146.2,98.6c8.6,8.6,16.8,17.5,24.7,26.7l-13.2-1.1c-6.3-0.5-12.4,4.1-13.6,10.3
		l-36.4,185c-1.2,6.2,1.6,14.7,6.2,19l138.7,127.6c4.7,4.3,12.3,4.4,17.1,0.2l10-8.7C945.2,574,933.5,622.7,913.9,669z"/>
	<path d="M671,443.4c1.9-6-0.7-13.9-5.8-17.6L499.3,305.2c-5.1-3.7-13.4-3.7-18.6,0L314.8,425.8c-5.1,3.7-7.7,11.6-5.7,17.6
		l63.4,195c2,6,8.7,10.9,15,10.9h205.1c6.3,0,13.1-4.9,15-10.9L671,443.4z M577.2,491.6c-5.3,0-9.8-4.1-10.2-9.5l-2.5-32.5
		l-67.8,97.2c-1.8,3.1-8.6,7.3-15.5,1.5l-40.9-39.4l-38.6,56.4c-1.9,2.7-4.9,4.2-7.9,4.4v-29l36.5-53.3c5.5-7,13-4.5,15.5-1.6
		l41,39.5l62.1-89.1l-32.5,2.5c-5.7,0.4-10.6-3.8-11-9.4c-0.5-5.7,3.8-10.6,9.4-11l57.2-4.3c5.7-0.5,10.5,3.8,11,9.4l4.3,57.2
		C587.8,486.3,583.2,491.6,577.2,491.6z"/>
</g>
</svg>
